<svg id="Calque_1" data-name="Calque 1" xmlns="http://www.w3.org/2000/svg" xmlns:xlink="http://www.w3.org/1999/xlink" viewBox="0 0 766.76 485.17"><defs><style>.cls-1{fill:none;}.cls-2{clip-path:url(#clip-path);}.cls-3{fill:#eee;}.cls-4{fill:#357ec6;}</style><clipPath id="clip-path" transform="translate(-116.62 -257.41)"><rect class="cls-1" x="116.62" y="256.43" width="766.76" height="487.14"/></clipPath></defs><title>logo-biblio</title><g class="cls-2"><path class="cls-3" d="M548.9,261.45c-105.91-11-220,0-309.59,40.22-78,34.71-112.9,92.29-121,153-3.49,21.29-1.16,44.16,4.66,67-17.46,130.15,216.49,195.62,382.93,183A594.68,594.68,0,0,0,578,695.26c12.8,29.18,66.34,46.54,109.4,47.32,9.32,0,15.14-6.31,12.81-11.82-5.83-15.78-8.15-32.34-11.64-48.91-1.17-3.94,0-10.25-1.17-15.77C777,633.74,850.36,582.47,876,516.22,924.85,380.55,722.34,279.59,548.9,261.45Zm34.92,358.88v-1.58c17.46-4.73,36.09-9.46,53.54-14.2-17.45,5.53-36.08,11.05-53.54,15.78ZM724.66,329.28l21,11.83s-1.16,0-1.16.79l-21-11.83c1.16,0,1.16-.79,1.16-.79ZM389.45,316.66c0,.79-1.16.79-1.16,1.58l-5.82,3.94A25.38,25.38,0,0,0,372,319.82c4.65-.79,10.47-2.37,17.45-3.16Zm135,365.19a513.12,513.12,0,0,0,51.21-9.46c1.16,0,1.16.79,2.33.79a419.84,419.84,0,0,1-53.54,8.67Zm213-95.43c-1.16-.8-2.33-1.58-3.49-2.37l5.82-3.94c2.33-.79,5.82-.79,8.14-1.58-2.32,3.15-5.81,5.52-10.47,7.89Zm47.73-2.37a208,208,0,0,0,27.93-30.76c1.16.78,2.32.78,3.48,1.58a388.09,388.09,0,0,1-31.41,29.18Zm0,0" transform="translate(-116.62 -257.41)"/></g><path class="cls-4" d="M264.69,560.84q-26.25,10.26-67.09,10.27c-3.34,0-6.52-1.58-9.51-4.73s-4.49-6.39-4.49-9.74v-34q0-16.68,2.1-47.6,2.33-33.37,2.57-48.31-.12-10.74,1.28-32c.54-3.89,1.83-6.46,3.85-7.7q15.87-4.91,36.06-4.9,20.53,0,39.44,14,21.81,16.1,21.82,39.79,0,30-23.34,47.25,17.5,7.47,26.19,16.57t8.7,19.84q0,14.11-15.29,27.3A75,75,0,0,1,264.69,560.84Zm-22.17-61.38-12.36-2c-1,0-2.55.06-4.61.18s-3.64.17-4.73.17a92.24,92.24,0,0,1-13.42-1.05q-.69,14.7-.7,26.25v24.16q30.57-1.05,49.83-8.64a51.3,51.3,0,0,0,15.63-9.8q7.13-6.06,7.12-9.1,0-5.48-14.94-12.37A115.91,115.91,0,0,0,242.52,499.46ZM229.46,406q-12.72,0-17.86.82l-.23,20.42L209,472.39q16.56,1.41,17.73,1.29,17.63-1.41,28.82-11,12-10.38,12-26.72,0-11.08-12.25-20.54T229.46,406Z" transform="translate(-116.62 -257.41)"/><path class="cls-4" d="M365.75,512.53q0,7,.4,21t.41,20.94a11.58,11.58,0,0,1-3.15,8.4,12.05,12.05,0,0,1-16.51,0,11.45,11.45,0,0,1-3.21-8.4q0-7-.41-20.94t-.4-21q0-11,1.16-27.36t1.17-27.36a11.64,11.64,0,0,1,3.21-8.52,12,12,0,0,1,16.45,0,11.64,11.64,0,0,1,3.21,8.52q0,11-1.17,27.36T365.75,512.53Zm-5.26-94.75a13.43,13.43,0,0,1-9.68-4,13.26,13.26,0,0,1,0-19.14,13.44,13.44,0,0,1,9.68-4,13.25,13.25,0,0,1,9.63,4,13.38,13.38,0,0,1,0,19.14A13.24,13.24,0,0,1,360.49,417.78Z" transform="translate(-116.62 -257.41)"/><path class="cls-4" d="M469.71,570.41a74.13,74.13,0,0,1-32.44-7q-3.74,5.6-9.1,5.6a10.24,10.24,0,0,1-7.52-3.09,10.54,10.54,0,0,1-3.1-7.76c0-2,.1-5,.3-9s.29-7,.29-9q0-12.37-.64-37.05t-.65-37.05q0-8.52.12-32.26t.12-32.38a26.78,26.78,0,0,1,2.92-12.6q3.84-7.12,10.61-7.12,8.76,0,8.75,10.15a28.38,28.38,0,0,1-.58,4.78,28.59,28.59,0,0,0-.58,4.79L437.86,427l-.24,29.76a93.68,93.68,0,0,1,19.32-10.33A49.11,49.11,0,0,1,474.15,443q25.08,0,40.72,19.25,14.7,18.09,14.7,44.46,0,26.59-17.15,45.16T469.71,570.41ZM474.15,465a41.43,41.43,0,0,0-19.61,5.37q-4.89,2.68-16.8,11.55l-.23,20.19.11,18.2.12,19.14q5.61,2.57,15.75,6.53a55.23,55.23,0,0,0,16.22,2.22q16.92,0,27.77-11.9t10.86-29.64q0-17.38-8.76-29.06Q490.13,465,474.15,465Z" transform="translate(-116.62 -257.41)"/><path class="cls-4" d="M596.67,473.79l-1.75,58q0,9.21-.94,27.07-1.15,11.65-11.43,11.66-11.44,0-11.44-11.9,0-14.11,1.29-42.41t1.28-42.42q0-18.44.58-42.18t.59-42.18q0-11.67,11.43-11.67t11.55,11.67q0,18.44-.58,42.18T596.67,473.79Z" transform="translate(-116.62 -257.41)"/><path class="cls-4" d="M670.06,512.53q0,7,.41,21t.41,20.94a11.58,11.58,0,0,1-3.15,8.4,12.05,12.05,0,0,1-16.51,0,11.45,11.45,0,0,1-3.21-8.4q0-7-.41-20.94t-.41-21q0-11,1.17-27.36t1.17-27.36a11.64,11.64,0,0,1,3.21-8.52,12,12,0,0,1,16.45,0,11.64,11.64,0,0,1,3.21,8.52q0,11-1.17,27.36T670.06,512.53Zm-5.25-94.75a13.43,13.43,0,0,1-9.68-4,13.24,13.24,0,0,1,0-19.14,13.44,13.44,0,0,1,9.68-4,13.25,13.25,0,0,1,9.63,4,13.4,13.4,0,0,1,0,19.14A13.24,13.24,0,0,1,664.81,417.78Z" transform="translate(-116.62 -257.41)"/><path class="cls-4" d="M763.3,572.39q-19.6,0-33.72-14.47Q713.82,541.83,713,514.63q-.71-26.37,13.3-46.44,16.34-23.68,45.5-23.68,23.34,0,35.36,21.35,9.57,17.26,9.22,41.54-.36,25.9-13.54,44.22Q787.91,572.4,763.3,572.39Zm7-104.2q-17.16-.1-26.72,16.34Q736,497.72,736,514.63T745.21,541a24.54,24.54,0,0,0,18.09,7.82A28.28,28.28,0,0,0,784.18,540q9.92-9.8,10.5-26.48Q796.32,468.31,770.3,468.19Z" transform="translate(-116.62 -257.41)"/></svg>